<svg width="40" height="48" viewBox="0 0 40 48" fill="none" xmlns="http://www.w3.org/2000/svg">
<path d="M1.5 0.5H35C37.4853 0.5 39.5 2.51472 39.5 5V43C39.5 45.4853 37.4853 47.5 35 47.5H1.5V0.5Z" fill="white" stroke="#C8C8C8"/>
<path d="M33.75 10.25H6.25C5.58696 10.25 4.95107 10.5134 4.48223 10.9822C4.01339 11.4511 3.75 12.087 3.75 12.75V35.25C3.75 35.913 4.01339 36.5489 4.48223 37.0178C4.95107 37.4866 5.58696 37.75 6.25 37.75H33.75C34.413 37.75 35.0489 37.4866 35.5178 37.0178C35.9866 36.5489 36.25 35.913 36.25 35.25V12.75C36.25 12.087 35.9866 11.4511 35.5178 10.9822C35.0489 10.5134 34.413 10.25 33.75 10.25ZM33.75 12.75V28.8047L29.6766 24.7328C29.4444 24.5006 29.1688 24.3164 28.8654 24.1907C28.5621 24.0651 28.2369 24.0004 27.9086 24.0004C27.5802 24.0004 27.2551 24.0651 26.9518 24.1907C26.6484 24.3164 26.3728 24.5006 26.1406 24.7328L23.0156 27.8578L16.1406 20.9828C15.6718 20.5143 15.0362 20.2512 14.3734 20.2512C13.7107 20.2512 13.075 20.5143 12.6063 20.9828L6.25 27.3391V12.75H33.75ZM6.25 30.875L14.375 22.75L26.875 35.25H6.25V30.875ZM33.75 35.25H30.4109L24.7859 29.625L27.9109 26.5L33.75 32.3406V35.25ZM22.5 19.625C22.5 19.2542 22.61 18.8916 22.816 18.5833C23.022 18.275 23.3149 18.0346 23.6575 17.8927C24.0001 17.7508 24.3771 17.7137 24.7408 17.786C25.1045 17.8584 25.4386 18.037 25.7008 18.2992C25.963 18.5614 26.1416 18.8955 26.214 19.2592C26.2863 19.6229 26.2492 19.9999 26.1073 20.3425C25.9654 20.6851 25.725 20.978 25.4167 21.184C25.1084 21.39 24.7458 21.5 24.375 21.5C23.8777 21.5 23.4008 21.3025 23.0492 20.9508C22.6975 20.5992 22.5 20.1223 22.5 19.625Z" fill="#C8C8C8"/>
</svg>
