<svg width="154" height="102" viewBox="0 0 154 102" fill="none" xmlns="http://www.w3.org/2000/svg">
<g filter="url(#filter0_d_677_3864)">
<path d="M102.702 19.6623C102.702 19.6623 59.785 -7.58158 13.2458 22.8562C57.9581 -17.5703 102.702 19.6623 102.702 19.6623Z" fill="#F5F7FA"/>
<path d="M50.5039 22.6205C50.5039 22.6205 97.9193 40.3951 136.864 1C101.772 49.7888 50.5039 22.6205 50.5039 22.6205Z" fill="#F5F7FA"/>
<path d="M135.099 56.8596C132.798 55.7164 130.843 54.1216 130.843 51.3215C130.843 48.1737 133.342 43.7554 140.727 43.7554C141.56 43.7554 145.669 44.3635 146.113 44.3635C147.501 44.5293 147.501 45.1361 147.501 46.0188L147.28 49.2787C147.28 49.4984 147.168 50.1618 146.613 50.1618C146.224 50.1618 145.947 50.0513 145.614 49.0025C145.279 47.9523 143.781 43.8123 140.06 43.8123C137.673 43.8123 135.618 46.3523 135.618 48.3394C135.618 50.5492 136.84 51.0452 142.448 53.3655C143.238 53.7118 144.512 54.2417 145.729 55.0886C142.163 55.6612 138.664 56.4242 135.099 56.8596Z" fill="#F5F7FA"/>
<path d="M89.9923 48.1202V56.9104C88.1831 56.6611 86.3952 56.2875 84.6047 55.9221V47.8439C84.6047 47.1253 84.1614 46.7951 83.328 46.849C82.8847 46.849 82.4949 46.9043 82.0512 46.9043C81.7737 46.9043 81.1077 46.9042 81.1077 46.2978C81.1077 45.9311 81.2451 45.7383 81.4905 45.5657C81.8207 45.4739 82.073 45.5318 82.2913 45.5239C85.7588 45.4081 88.5725 42.7277 88.5725 39.2776C88.5695 38.907 88.7517 38.6264 89.2937 38.6238C89.8436 38.6212 89.9923 38.8974 89.9923 39.7805V43.5351C89.9923 44.5856 89.7348 46.5606 90.8971 46.4553C93.7025 46.2034 94.7865 44.0406 96.2116 44.0406C96.6563 44.0406 97.0447 44.8063 96.9328 45.7998C96.8223 46.7947 96.6563 46.9605 95.9337 46.9605C94.9898 46.9605 93.7117 46.8487 91.0464 46.8487C90.1028 46.8487 89.9923 46.9605 89.9923 48.1202Z" fill="#F5F7FA"/>
<path d="M68.4821 44.2518V47.0063C68.4821 47.3365 68.4821 47.7775 68.815 47.7328C68.982 47.7328 69.2599 47.4013 69.3139 47.2904C69.4257 47.1247 72.1463 43.9765 75.3671 43.9765C77.3664 43.9765 79.3657 45.0806 79.3657 47.2904C79.3657 49.5555 77.3664 50.4386 75.9778 50.4386C74.7563 50.4386 73.9785 49.9962 73.0912 49.0026C72.146 47.9525 72.0085 46.5235 70.7913 46.5961C68.6745 46.7241 68.6476 48.6711 68.6476 53.2548V55.4969C66.8492 55.8337 65.0613 56.2343 63.2617 56.5618V53.1226C63.2617 49.6512 62.5404 49.5407 60.4293 49.4299C60.2635 49.4299 59.708 49.4299 59.708 48.8247C59.708 48.4379 60.0129 48.0561 60.5789 47.9794C61.0413 47.9403 61.1344 47.9525 61.1344 47.9525C63.8119 47.9525 66.0983 46.2847 67.0018 43.9377C67.2619 43.3013 67.7352 43.3135 67.8714 43.3135C68.4265 43.3135 68.4821 43.7542 68.4821 44.2518Z" fill="#F5F7FA"/>
<path d="M51.7231 56.5308C51.657 56.0954 51.5774 55.653 51.4817 55.2084C50.5891 51.0331 46.778 43.0194 40.8583 44.2718C37.3382 45.0161 35.1392 48.9377 35.8861 55.0975C34.1121 55.3481 32.3594 55.7165 30.6055 56.0737C30.9978 50.794 34.685 45.4272 41.3154 44.0264C47.5078 42.7175 55.2702 45.3111 57.0137 53.4679C57.282 54.7216 57.3804 55.9727 57.3195 57.1929C55.4251 57.1402 53.5672 56.8719 51.7231 56.5308Z" fill="#F5F7FA"/>
<path d="M126.358 53.4681C126.612 54.6558 126.713 55.8421 126.672 57.0017C124.756 56.7764 122.869 56.3936 120.981 56.0082C120.936 55.7424 120.883 55.477 120.827 55.2086C119.934 51.0334 116.121 43.0196 110.203 44.2721C106.602 45.0325 104.384 49.1176 105.286 55.5201C103.494 55.8598 101.715 56.2575 99.9216 56.5811C100.108 51.1412 103.817 45.4735 110.66 44.027C116.851 42.7177 124.615 45.3117 126.358 53.4681Z" fill="#F5F7FA"/>
<path d="M5.77539 55.0239V40.388C5.77539 38.1246 5.77539 36.6321 2.94398 36.4677C1.77807 36.3568 1.00024 36.3568 1.00024 35.529C1.00024 34.7551 1.22257 34.7551 3.05482 34.7551C3.8879 34.7551 7.9408 34.9765 8.83045 34.9765C10.1625 34.9765 16.5472 34.7551 17.9913 34.7551C27.1535 34.7551 29.5965 40.609 29.5965 44.5294C29.5965 51.2664 23.5446 54.305 18.9918 54.305C17.6033 54.305 16.437 54.084 14.1045 53.2548C13.7717 53.1456 12.4397 52.702 12.2157 52.702C11.7168 52.702 11.7168 52.9782 11.7168 53.6969V56.0642C9.74443 55.7126 7.77077 55.3367 5.77539 55.0239ZM11.7168 39.7194V50.7231C11.7168 51.8502 11.7168 52.1156 12.3828 52.4461C13.3264 53.0434 14.9376 53.1756 16.1038 53.1756C19.1023 53.1756 23.322 50.8526 23.322 44.3597C23.322 38.5275 19.6575 34.9765 15.2155 34.9765C11.9947 34.9765 11.7168 36.4729 11.7168 39.7194Z" fill="#F5F7FA"/>
<path d="M131.799 61.0302C132.217 61.1729 132.448 61.6636 132.677 62.5319C132.954 63.5255 134.566 69.6273 139.062 69.6273C141.56 69.6273 144.448 66.6736 144.448 63.8017C144.448 61.909 143.38 60.7088 141.59 59.6939C138.345 60.2938 135.086 60.8615 131.799 61.0302ZM36.6556 58.8756C38.5391 65.5034 42.7858 70.0628 46.7548 69.2241C49.6951 68.6012 51.7118 65.1202 51.9358 60.4503C47.975 59.733 44.0799 58.6599 40.0004 58.6599C38.8733 58.6599 37.7597 58.7421 36.6556 58.8756ZM106.11 59.2489C108.044 65.6731 112.206 70.0464 116.1 69.2241C119.144 68.5798 121.198 64.8723 121.298 59.954C118.202 59.3219 115.114 58.6599 111.912 58.6599C109.945 58.6599 108.02 58.9105 106.11 59.2489ZM125.995 60.7967C124.611 64.9828 121.193 68.3345 116.303 69.3685C108.284 71.0629 102.092 66.1234 100.396 60.3734C98.2714 60.771 96.1307 61.0812 93.9343 61.0812C92.6023 61.0812 91.2921 60.9667 89.9923 60.7884V61.5932C89.9923 64.078 90.3251 66.618 93.2118 66.618C94.0449 66.618 94.823 66.4522 96.7654 65.2373C96.9328 65.1268 97.2104 65.0163 97.3775 65.0163C97.6538 65.0163 97.8212 65.2926 97.8212 65.5136C97.8212 66.3427 94.2675 69.7105 90.2133 69.7105C87.3266 69.7105 84.606 67.8326 84.606 63.6909V59.8014C81.7559 59.2203 78.9047 58.6595 75.9563 58.6595C73.4715 58.6595 71.0542 59.0588 68.6477 59.5318V63.7557C68.6477 66.0138 68.6477 67.5024 71.4801 67.6681C72.7016 67.7221 73.4781 67.7787 73.4781 68.6065C73.4781 69.379 72.7568 69.379 72.3118 69.379C71.3679 69.379 66.872 69.1593 65.8715 69.1593C65.0381 69.1593 60.9855 69.379 60.0972 69.379C59.7088 69.379 59.1536 69.379 59.1536 68.6617C59.1536 68.1641 59.542 67.9431 60.8184 67.7787C63.2628 67.4468 63.2628 66.8416 63.2628 63.7557V60.5835C61.5236 60.8749 59.7696 61.0812 57.9778 61.0812C57.5049 61.0812 57.0342 61.0663 56.5662 61.0394C55.1316 65.1123 51.7519 68.3545 46.9564 69.3685C38.7151 71.1116 32.4027 65.8415 30.9184 59.8906C27.9903 60.4892 25.0579 61.0812 22.022 61.0812C18.4992 61.0812 15.1057 60.5635 11.7165 59.9649V63.6912C11.7165 66.0102 11.7165 67.5027 14.7703 67.6685C15.9918 67.7224 16.7683 67.779 16.7683 68.6068C16.7683 69.3794 16.047 69.3794 15.602 69.3794C13.7145 69.3794 10.7161 69.1597 8.82889 69.1597C7.88498 69.1597 3.22165 69.3794 2.16624 69.3794C1.72125 69.3794 1 69.3794 1 68.5515C1 67.779 1.77782 67.7224 2.94407 67.6685C5.77548 67.4458 5.77548 66.0102 5.77548 63.7468V58.919L5.77811 56.9667C11.2045 57.8146 16.4611 59.144 22.0223 59.144C28.1525 59.144 33.8577 56.724 40.0001 56.724C46.1424 56.724 51.848 59.144 57.9778 59.144C64.108 59.144 69.8136 56.724 75.9559 56.724C82.0983 56.724 87.8035 59.144 93.9337 59.144C100.064 59.144 105.769 56.724 111.911 56.724C118.054 56.724 123.759 59.1469 129.89 59.144C135.918 59.1427 141.577 57.5775 147.478 56.7026C147.929 57.2338 148.306 57.8255 148.577 58.4888C148.844 59.1779 149 59.9501 149 60.8197C149 64.9614 145.613 69.7109 138.284 69.7109C134.953 69.7109 131.51 68.3302 131.289 68.1644C130.623 67.8326 130.623 67.3919 130.623 66.0668L130.733 61.979C130.733 61.8429 130.771 61.2617 131.182 61.0568C130.752 61.0729 130.321 61.0812 129.889 61.0812C128.576 61.0812 127.279 60.9706 125.995 60.7967Z" fill="#F5F7FA"/>
<path d="M41.4647 87.8182C41.9379 87.8182 42.2642 87.8182 42.2642 87.2845C42.2642 86.2787 41.3167 82.9905 36.8448 82.9905C32.8178 82.9905 29.501 85.8337 29.501 90.2168C29.501 94.3329 32.4616 96.9091 36.3715 96.9091C40.1317 96.9091 42.205 94.303 42.205 93.8583C42.205 93.7705 42.1455 93.5926 41.9379 93.5926C41.7613 93.5926 41.7317 93.6222 41.2867 94.0658C40.576 94.7466 39.3614 95.2508 38.0294 95.2508C35.7186 95.2508 33.9012 93.7896 33.1556 91.6376C32.9168 90.9503 32.7876 90.1912 32.7876 89.3874C32.7876 87.8465 33.0546 87.8182 33.5575 87.8182H41.4647ZM33.9726 86.9C33.2904 86.9 33.173 86.9 33.173 86.5737C33.173 86.1005 34.0156 83.2355 36.6796 83.2355C37.1246 83.2355 39.2131 83.7318 39.2131 85.4775C39.2131 86.2475 38.4728 86.8997 37.2003 86.8997H33.9726V86.9Z" fill="#F5F7FA"/>
<path d="M65.299 92.7634C65.299 95.2212 64.9445 96.6042 62.2186 96.6042C57.7776 96.6042 55.0531 92.0514 55.0531 87.7291C55.0531 83.7318 57.6592 78.3107 62.2186 78.3107C65.4773 78.3107 66.631 80.8589 67.1056 81.7473C67.3131 82.161 67.5493 82.4281 67.816 82.4281C67.9939 82.4281 68.1719 82.2797 68.1719 81.8956C68.1719 81.6285 67.9048 79.2599 67.549 78.904C67.3411 78.6965 65.5954 77.9861 62.8409 77.9861C54.9633 77.9861 51.3206 83.2575 51.3206 87.6107C51.3206 90.4826 53.2459 96.9091 61.5372 96.9091C62.3068 96.9091 65.1204 96.9091 67.8157 95.3991C68.6744 94.9542 68.6744 94.8654 68.6744 93.5334C68.6744 91.8455 68.5853 90.8384 68.5853 90.5418V90.2464C68.5853 88.9723 68.6448 88.499 70.0669 88.4102C70.8652 88.3507 71.1618 88.2619 71.1618 87.9356C71.1618 87.5811 70.8073 87.5811 70.6885 87.5811C70.2436 87.5811 67.4003 87.6998 66.927 87.6998C64.9438 87.6998 64.1134 87.5811 63.6105 87.5811C62.4255 87.5811 62.2785 87.5811 62.2785 87.9653C62.2785 88.2619 62.5146 88.3803 63.4326 88.4102C64.7363 88.4398 65.2984 88.7056 65.2984 90.1872V92.7634H65.299Z" fill="#F5F7FA"/>
<path d="M98.5367 79.7332C98.5367 78.815 97.8263 78.075 96.908 78.075C95.9306 78.075 95.2498 78.8745 95.2498 79.7036C95.2498 80.5623 95.9615 81.3027 96.908 81.3027C97.8855 81.3027 98.5367 80.5032 98.5367 79.7332Z" fill="#F5F7FA"/>
<path d="M79.2134 87.3706V86.1504C79.2134 85.1164 79.003 83.1223 77.4756 83.1223C75.7404 83.1223 75.3753 83.7278 75.3723 84.2711C75.4141 84.6148 75.5707 85.0233 75.5572 85.4561C75.5368 86.1747 75.3697 86.6263 74.8668 87.0469C74.2952 87.5268 73.1668 87.8517 72.3808 86.9147C71.8292 86.2583 71.9009 85.4818 72.289 84.8398C72.8136 83.8153 74.2722 82.7257 78.2103 82.9644C81.2585 83.1493 82.3652 85.2117 82.3652 86.4224V93.3856C82.3652 94.3009 82.4622 95.0399 83.3723 95.0399C83.7294 95.0399 84.0544 94.9212 84.3149 94.7446C84.672 94.4789 84.7046 94.4493 84.8661 94.4493C85.0614 94.4493 85.1588 94.6259 85.1588 94.7147C85.1588 95.4241 83.1769 96.811 81.7479 96.811C80.4807 96.811 79.863 95.9253 79.4736 95.2162C79.1809 94.6555 79.1164 94.6555 79.0181 94.6555C78.9533 94.6555 78.7915 94.7742 78.7915 94.7742C77.4256 95.7786 76.2623 96.6887 74.8011 96.6887C74.4574 96.6887 71.5398 96.9258 71.5398 93.4274C71.5398 90.1069 75.9321 88.4326 78.4008 88.4326C79.2457 88.4329 79.2134 87.9017 79.2134 87.3706ZM79.2134 91.8507V88.9318C79.2134 88.6368 78.8967 88.5289 78.7349 88.5289C78.2791 88.5289 77.3286 88.7647 76.8083 89.0022C75.4588 89.7152 74.3653 90.7562 74.3653 92.572C74.3653 94.6709 75.9805 95.3843 76.6948 95.3843C79.1582 95.3843 79.2134 93.9174 79.2134 91.8507Z" fill="#F5F7FA"/>
<path d="M104.438 90.838C104.438 94.0657 106.603 97.0882 109.366 96.7511C112.308 96.3922 112.295 94.5926 112.763 94.1949C113.258 93.7743 114.005 93.9601 113.852 94.633C113.714 95.2329 111.722 96.9086 108.553 96.9086C105.178 96.9086 101.179 94.9241 101.179 90.3334C101.179 85.5662 105.561 82.99 109.234 82.99C109.578 82.99 111.82 83.1748 113.028 83.8879C113.192 83.9849 113.338 84.0914 113.457 84.2102C113.551 84.3046 113.629 84.4059 113.686 84.5137C113.735 84.596 113.778 84.6834 113.814 84.7805C114.083 85.4803 113.987 86.3121 113.33 86.8633C112.393 87.6494 111.338 87.133 110.858 86.5611C110.436 86.0582 110.349 85.5853 110.454 84.8745C110.788 83.8313 109.917 83.0531 108.76 83.138C106.49 83.3044 104.438 86.2177 104.438 90.838Z" fill="#F5F7FA"/>
<path d="M130.706 87.3706V86.1504C130.706 85.1164 130.494 83.1223 128.966 83.1223C127.233 83.1223 126.866 83.7278 126.865 84.2711C126.905 84.6148 127.063 85.0233 127.049 85.4561C127.029 86.1747 126.862 86.6263 126.359 87.0469C125.787 87.5268 124.658 87.8517 123.872 86.9147C123.322 86.2583 123.392 85.4818 123.78 84.8398C124.304 83.8153 125.764 82.7257 129.701 82.9644C132.749 83.1493 133.856 85.2117 133.856 86.4224V93.3856C133.856 94.3009 133.953 95.0399 134.863 95.0399C135.221 95.0399 135.546 94.9212 135.806 94.7446C136.165 94.4789 136.195 94.4493 136.359 94.4493C136.554 94.4493 136.651 94.6259 136.651 94.7147C136.651 95.4241 134.669 96.811 133.239 96.811C131.972 96.811 131.356 95.9253 130.966 95.2162C130.672 94.6555 130.607 94.6555 130.51 94.6555C130.445 94.6555 130.282 94.7742 130.282 94.7742C128.918 95.7786 127.755 96.6887 126.292 96.6887C125.949 96.6887 123.032 96.9258 123.032 93.4274C123.032 90.1069 127.423 88.4326 129.893 88.4326C130.737 88.4329 130.706 87.9017 130.706 87.3706ZM130.706 91.8507V88.9318C130.706 88.6368 130.389 88.5289 130.226 88.5289C129.772 88.5289 128.82 88.7647 128.301 89.0022C126.951 89.7152 125.858 90.7562 125.858 92.572C125.858 94.6709 127.473 95.3843 128.188 95.3843C130.649 95.3843 130.706 93.9174 130.706 91.8507Z" fill="#F5F7FA"/>
<path d="M119.963 79.7332C119.963 78.815 119.253 78.075 118.335 78.075C117.357 78.075 116.677 78.8745 116.677 79.7036C116.677 80.5623 117.389 81.3027 118.335 81.3027C119.312 81.3027 119.963 80.5032 119.963 79.7332Z" fill="#F5F7FA"/>
<path d="M29.2582 94.7117C29.2582 94.6226 29.1612 94.445 28.9658 94.445C28.8027 94.445 28.7718 94.4746 28.413 94.7416C28.1528 94.9182 27.8279 95.0366 27.4707 95.0366C26.7212 95.0366 26.5229 94.5338 26.4771 93.8447V81.0276L26.5136 78.6803L26.6146 77.1717C26.6146 76.9089 26.4423 76.627 26.1456 76.627C26.0742 76.627 25.772 76.6122 25.5862 76.9803C25.1063 78.2245 23.8888 79.1088 22.4624 79.1088L22.1427 79.1236C21.7882 79.2128 21.7033 79.3664 21.7033 79.5713C21.7033 79.8923 21.9986 79.8922 22.0874 79.8922C23.2103 79.9501 23.5961 80.0093 23.5961 81.8498V83.3814C23.5882 83.4946 23.5099 83.608 23.3964 83.608C23.3372 83.608 23.1606 83.5502 23.0419 83.4906C22.5377 83.2532 21.4711 82.9861 20.5249 82.9861C17.1788 82.9861 13.3594 85.6814 13.3594 90.2704C13.3594 94.2394 16.2608 96.9034 19.607 96.9034C21.2948 96.9034 22.3006 96.1634 23.1014 95.5122C23.2201 95.4231 23.3968 95.3047 23.5152 95.3047C23.5882 95.3047 23.6595 95.4017 23.7418 95.5043C24.1397 96.1433 24.7488 96.808 25.8463 96.808C27.2763 96.808 29.2582 95.4195 29.2582 94.7117ZM23.7224 87.6067V93.5589C23.7224 94.0914 23.8019 95.7145 21.3146 95.7145C18.3835 95.7145 16.4973 92.7281 16.4973 89.3833C16.4973 85.5034 18.6854 83.1927 20.7278 83.1927C23.7197 83.193 23.7224 86.2734 23.7224 87.6067Z" fill="#F5F7FA"/>
<path d="M92.7088 96.371C92.7088 96.1053 92.5605 95.9573 91.8205 95.8682C90.5464 95.6902 90.5464 95.364 90.5464 93.7057V83.3624C90.5477 83.3624 90.549 83.3624 90.5503 83.3624V82.1735L90.6003 78.9339L90.7013 77.4253C90.7013 77.1625 90.5286 76.8807 90.2333 76.8807C90.1606 76.8807 89.8587 76.8659 89.6725 77.2339C89.1927 78.4784 87.9751 79.3625 86.55 79.3625L86.2307 79.3773C85.8761 79.4664 85.7896 79.62 85.7896 79.8249C85.7896 80.1459 86.0863 80.1459 86.1738 80.1459C87.267 80.2025 87.6541 80.2886 87.6742 81.9874V93.7353C87.6742 95.364 87.6742 95.6902 86.4001 95.8682C85.7489 95.9573 85.5117 96.0744 85.5117 96.3414C85.5117 96.7269 85.8084 96.7269 86.1642 96.7269C86.7858 96.7269 87.1404 96.6082 89.0953 96.6082C90.8128 96.6082 91.4048 96.7269 92.204 96.7269C92.4122 96.7272 92.7088 96.7272 92.7088 96.371Z" fill="#F5F7FA"/>
<path d="M100.52 96.3723C100.52 96.1052 100.373 95.9572 99.6317 95.8681C98.3589 95.6901 98.3589 95.3356 98.3589 93.7056V89.3455C98.3629 89.3455 98.3655 89.3442 98.3698 89.3442V88.155L98.4181 85.0568C98.4277 84.8884 98.4342 84.7345 98.4438 84.5756L98.5221 83.4068C98.5221 83.1437 98.3481 82.8621 98.0531 82.8621C97.9817 82.8621 97.6781 82.8486 97.4936 83.2167C97.0125 84.4609 95.7949 85.3439 94.3698 85.3439L94.0505 85.36C93.6959 85.4479 93.6111 85.6011 93.6111 85.8063C93.6111 86.1273 93.9064 86.1273 93.9952 86.1273C95.0602 86.1826 95.4486 86.2878 95.4861 87.8639V88.1092V93.7365C95.4861 95.3652 95.4861 95.6901 94.2133 95.8681C93.5608 95.9572 93.325 96.0756 93.325 96.3413C93.325 96.7268 93.6203 96.7268 93.8278 96.7268C94.3307 96.7268 95.6936 96.6081 96.9368 96.6081C98.2997 96.6081 99.5725 96.7268 100.017 96.7268C100.225 96.7271 100.52 96.7271 100.52 96.3723Z" fill="#F5F7FA"/>
<path d="M121.916 96.3723C121.916 96.1052 121.769 95.9572 121.027 95.8681C119.755 95.6901 119.755 95.3356 119.755 93.7056V89.3455C119.759 89.3455 119.762 89.3442 119.766 89.3442V88.155L119.814 85.0568C119.824 84.8884 119.83 84.7345 119.84 84.5756L119.918 83.4068C119.918 83.1437 119.745 82.8621 119.449 82.8621C119.377 82.8621 119.075 82.8486 118.889 83.2167C118.408 84.4609 117.191 85.3439 115.765 85.3439L115.446 85.36C115.092 85.4479 115.007 85.6011 115.007 85.8063C115.007 86.1273 115.302 86.1273 115.391 86.1273C116.456 86.1826 116.844 86.2878 116.882 87.8639V88.1092V93.7365C116.882 95.3652 116.882 95.6901 115.609 95.8681C114.957 95.9572 114.721 96.0756 114.721 96.3413C114.721 96.7268 115.016 96.7268 115.224 96.7268C115.728 96.7268 117.09 96.6081 118.332 96.6081C119.695 96.6081 120.968 96.7268 121.413 96.7268C121.62 96.7271 121.916 96.7271 121.916 96.3723Z" fill="#F5F7FA"/>
</g>
<defs>
<filter id="filter0_d_677_3864" x="0" y="0" width="154" height="101.909" filterUnits="userSpaceOnUse" color-interpolation-filters="sRGB">
<feFlood flood-opacity="0" result="BackgroundImageFix"/>
<feColorMatrix in="SourceAlpha" type="matrix" values="0 0 0 0 0 0 0 0 0 0 0 0 0 0 0 0 0 0 127 0" result="hardAlpha"/>
<feOffset dx="2" dy="2"/>
<feGaussianBlur stdDeviation="1.5"/>
<feComposite in2="hardAlpha" operator="out"/>
<feColorMatrix type="matrix" values="0 0 0 0 0 0 0 0 0 0 0 0 0 0 0 0 0 0 0.4 0"/>
<feBlend mode="normal" in2="BackgroundImageFix" result="effect1_dropShadow_677_3864"/>
<feBlend mode="normal" in="SourceGraphic" in2="effect1_dropShadow_677_3864" result="shape"/>
</filter>
</defs>
</svg>
