<svg width="24" height="24" viewBox="0 0 24 24" fill="none" xmlns="http://www.w3.org/2000/svg">
<path d="M21.75 21.0001C21.4939 20.9994 21.2399 20.9531 21 20.8636V20.8591C20.6486 20.7103 20.331 20.4918 20.0663 20.2169C19.8017 19.9419 19.5955 19.6162 19.4603 19.2593C19.4129 19.109 19.3181 18.9782 19.19 18.8863C19.0619 18.7945 18.9075 18.7467 18.75 18.7501C18.5927 18.7508 18.4396 18.8007 18.312 18.8926C18.1844 18.9846 18.0887 19.1141 18.0382 19.2631C17.8722 19.747 17.5659 20.1705 17.1584 20.4798C16.751 20.7891 16.2607 20.9702 15.75 21.0001C15.2386 20.97 14.7478 20.7884 14.34 20.4784C13.9323 20.1684 13.626 19.744 13.4603 19.2593C13.4109 19.1103 13.3156 18.9807 13.188 18.8892C13.0604 18.7976 12.907 18.749 12.75 18.7501C12.5927 18.7508 12.4396 18.8007 12.312 18.8926C12.1844 18.9846 12.0887 19.1141 12.0382 19.2631C11.8722 19.747 11.5659 20.1705 11.1584 20.4798C10.751 20.7891 10.2607 20.9702 9.75 21.0001C9.23865 20.97 8.74782 20.7884 8.34004 20.4784C7.93226 20.1684 7.62599 19.744 7.46025 19.2593C7.40985 19.1105 7.31397 18.9813 7.18615 18.8899C7.05834 18.7985 6.90504 18.7495 6.7479 18.7499C6.59076 18.7503 6.43773 18.8001 6.31039 18.8922C6.18306 18.9842 6.08787 19.114 6.03825 19.2631C5.87217 19.747 5.56591 20.1705 5.15844 20.4798C4.75097 20.7891 4.2607 20.9702 3.75 21.0001H1.5V22.5001H3.75C4.33204 22.5052 4.90707 22.373 5.42836 22.114C5.94964 21.8551 6.40246 21.4768 6.75 21.0098C7.10113 21.4729 7.55469 21.8484 8.07516 22.1069C8.59562 22.3654 9.16887 22.4999 9.75 22.4999C10.3311 22.4999 10.9044 22.3654 11.4248 22.1069C11.9453 21.8484 12.3989 21.4729 12.75 21.0098C13.1011 21.4729 13.5547 21.8484 14.0752 22.1069C14.5956 22.3654 15.1689 22.4999 15.75 22.4999C16.3311 22.4999 16.9044 22.3654 17.4248 22.1069C17.9453 21.8484 18.3989 21.4729 18.75 21.0098C19.1676 21.5496 19.7209 21.9688 20.3535 22.2248C20.7963 22.4079 21.2709 22.5015 21.75 22.5001H22.5V21.0001H21.75ZM21 10.2226L22.3177 11.2501L23.25 10.0711L12.459 1.66059C12.3259 1.55684 12.162 1.50049 11.9932 1.50049C11.8245 1.50049 11.6606 1.55684 11.5275 1.66059L0.75 10.0643L1.68225 11.2433L3 10.2158V14.1068C2.86115 14.4436 2.65718 14.7497 2.39977 15.0075C2.14237 15.2653 1.83659 15.4697 1.5 15.6091V17.1721C2.3973 16.9919 3.19764 16.4896 3.75 15.7598C4.10113 16.2229 4.55469 16.5984 5.07516 16.8569C5.59563 17.1154 6.16887 17.2499 6.75 17.2499C7.33113 17.2499 7.90438 17.1154 8.42484 16.8569C8.94531 16.5984 9.39886 16.2229 9.75 15.7598C10.1011 16.2229 10.5547 16.5984 11.0752 16.8569C11.5956 17.1154 12.1689 17.2499 12.75 17.2499C13.3311 17.2499 13.9044 17.1154 14.4248 16.8569C14.9453 16.5984 15.3989 16.2229 15.75 15.7598C16.0975 16.2268 16.5504 16.6051 17.0716 16.864C17.5929 17.123 18.168 17.2552 18.75 17.2501H22.5V15.7501H21V10.2226ZM16.4618 14.0123C16.4121 13.8632 16.3169 13.7335 16.1896 13.6414C16.0623 13.5493 15.9092 13.4996 15.7521 13.4992C15.595 13.4987 15.4417 13.5477 15.3138 13.6391C15.186 13.7305 15.0902 13.8598 15.0397 14.0086C14.8741 14.4934 14.5679 14.9179 14.1601 15.2281C13.7523 15.5382 13.2614 15.72 12.75 15.7501C12.2393 15.7202 11.749 15.5391 11.3416 15.2298C10.9341 14.9205 10.6278 14.497 10.4618 14.0131C10.4113 13.8641 10.3156 13.7346 10.188 13.6426C10.0604 13.5507 9.90728 13.5008 9.75 13.5001C9.59297 13.499 9.43963 13.5476 9.31201 13.6392C9.1844 13.7307 9.08908 13.8603 9.03975 14.0093C8.87401 14.494 8.56774 14.9184 8.15996 15.2284C7.75218 15.5384 7.26135 15.72 6.75 15.7501C6.25503 15.7272 5.77772 15.5592 5.37741 15.2672C4.97711 14.9752 4.67147 14.5719 4.4985 14.1076L4.5 9.04659L11.9932 3.20409L19.5 9.05409L19.5015 15.7501H18.75C18.2393 15.7202 17.749 15.5391 17.3416 15.2298C16.9341 14.9205 16.6278 14.4962 16.4618 14.0123Z" fill="#F5F7FA" stroke="#F5F7FA"/>
</svg>
