<svg width="40" height="40" viewBox="0 0 40 40" fill="none" xmlns="http://www.w3.org/2000/svg">
<path d="M8.33325 5H18.3333C19.6593 5 20.9311 5.52678 21.8688 6.46447C22.8065 7.40215 23.3333 8.67392 23.3333 10V16.6667H21.6666V10C21.6666 9.11594 21.3154 8.2681 20.6903 7.64298C20.0652 7.01786 19.2173 6.66667 18.3333 6.66667H8.33325C7.4492 6.66667 6.60135 7.01786 5.97623 7.64298C5.35111 8.2681 4.99992 9.11594 4.99992 10V31.6667C4.99992 32.5507 5.35111 33.3986 5.97623 34.0237C6.60135 34.6488 7.4492 35 8.33325 35H18.3333C19.2173 35 20.0652 34.6488 20.6903 34.0237C21.3154 33.3986 21.6666 32.5507 21.6666 31.6667V25H23.3333V31.6667C23.3333 32.9927 22.8065 34.2645 21.8688 35.2022C20.9311 36.1399 19.6593 36.6667 18.3333 36.6667H8.33325C7.00717 36.6667 5.7354 36.1399 4.79772 35.2022C3.86004 34.2645 3.33325 32.9927 3.33325 31.6667V10C3.33325 8.67392 3.86004 7.40215 4.79772 6.46447C5.7354 5.52678 7.00717 5 8.33325 5ZM13.3333 20H32.0833L26.6666 14.5833L27.7666 13.3333L35.2666 20.8333L27.7666 28.3333L26.6666 27.0833L32.0833 21.6667H13.3333V20Z" fill="#1D2834"/>
</svg>
