<svg width="32" height="26" viewBox="0 0 32 26" fill="none" xmlns="http://www.w3.org/2000/svg">
<g clip-path="url(#clip0_0_1787)">
<path d="M31.53 18.245L27.015 13.735C26.415 13.135 25.6 12.8 24.75 12.8H20.785C19.9 12.8 19.185 13.515 19.185 14.4V18.36C19.185 19.21 19.52 20.02 20.12 20.62L24.635 25.13C25.26 25.755 26.275 25.755 26.9 25.13L31.525 20.505C32.155 19.88 32.155 18.87 31.53 18.245ZM22.39 17.195C21.725 17.195 21.19 16.66 21.19 15.995C21.19 15.33 21.725 14.795 22.39 14.795C23.055 14.795 23.59 15.33 23.59 15.995C23.59 16.655 23.055 17.195 22.39 17.195ZM11.2 12.795C14.735 12.795 17.6 9.93 17.6 6.395C17.6 2.865 14.735 0 11.2 0C7.665 0 4.8 2.865 4.8 6.4C4.8 9.93 7.665 12.795 11.2 12.795ZM17.59 18.355V14.7C16.98 14.52 16.345 14.39 15.68 14.39H14.845C13.735 14.9 12.5 15.19 11.2 15.19C9.9 15.19 8.67 14.9 7.555 14.39H6.72C3.01 14.395 0 17.405 0 21.115V23.195C0 24.52 1.075 25.595 2.4 25.595H20C20.775 25.595 21.455 25.22 21.895 24.65L18.995 21.75C18.09 20.845 17.59 19.64 17.59 18.355Z" fill="#36536E"/>
</g>
<defs>
<clipPath id="clip0_0_1787">
<rect width="32" height="25.6" fill="white"/>
</clipPath>
</defs>
</svg>
