<svg width="1000" height="1000" viewBox="0 0 1000 1000" fill="none" xmlns="http://www.w3.org/2000/svg">
<g clip-path="url(#clip0_77_3385)">
<path fill-rule="evenodd" clip-rule="evenodd" d="M529.459 654.458C521.645 662.27 511.049 666.658 500 666.658C488.952 666.658 478.356 662.27 470.542 654.458L234.834 418.75C230.854 414.906 227.68 410.309 225.496 405.225C223.312 400.142 222.163 394.674 222.115 389.142C222.067 383.609 223.121 378.123 225.216 373.002C227.311 367.881 230.405 363.229 234.317 359.317C238.229 355.405 242.882 352.311 248.002 350.216C253.123 348.121 258.61 347.067 264.142 347.115C269.674 347.163 275.142 348.312 280.225 350.496C285.309 352.68 289.907 355.854 293.75 359.833L500 566.083L706.25 359.833C714.109 352.243 724.634 348.044 735.559 348.139C746.484 348.234 756.934 352.616 764.659 360.341C772.385 368.066 776.767 378.517 776.862 389.442C776.957 400.367 772.757 410.892 765.167 418.75L529.459 654.458Z" fill="#36536E"/>
</g>
<defs>
<clipPath id="clip0_77_3385">
<rect width="1000" height="1000" fill="white"/>
</clipPath>
</defs>
</svg>
