<svg width="1000" height="1000" viewBox="0 0 1000 1000" fill="none" xmlns="http://www.w3.org/2000/svg">
<path fill-rule="evenodd" clip-rule="evenodd" d="M470.541 345.542C478.355 337.73 488.951 333.342 500 333.342C511.048 333.342 521.644 337.73 529.458 345.542L765.166 581.25C772.756 589.108 776.956 599.634 776.861 610.558C776.766 621.483 772.384 631.934 764.659 639.659C756.933 647.384 746.483 651.767 735.558 651.861C724.633 651.956 714.108 647.757 706.25 640.167L500 433.917L293.75 640.167C285.891 647.757 275.366 651.956 264.441 651.861C253.516 651.767 243.066 647.384 235.341 639.659C227.615 631.934 223.233 621.483 223.138 610.558C223.043 599.634 227.243 589.108 234.833 581.25L470.541 345.542Z" fill="#36536E"/>
</svg>
