<svg width="24" height="18" viewBox="0 0 24 18" fill="none" xmlns="http://www.w3.org/2000/svg">
<path id="Vector" d="M22.2857 15.4286V13.7143C22.282 11.1365 21.3112 8.65396 19.5654 6.75738C17.8196 4.86079 15.4258 3.68821 12.8571 3.47143V1.71429H15.4286V0H8.57143V1.71429H11.1429V3.47143C8.57422 3.68821 6.18038 4.86079 4.43457 6.75738C2.68876 8.65396 1.71803 11.1365 1.71429 13.7143V15.4286H0V17.1429H24V15.4286H22.2857ZM12 5.14286C13.975 5.14558 15.8886 5.82908 17.4184 7.07815C18.9482 8.32722 20.0006 10.0655 20.3983 12H3.60171C3.99939 10.0655 5.05181 8.32722 6.58161 7.07815C8.11141 5.82908 10.025 5.14558 12 5.14286ZM3.42857 13.7143H20.5714V15.4286H3.42857V13.7143Z" fill="#36536E"/>
</svg>
